<?xml version="1.0" standalone="no"?>
<!DOCTYPE svg PUBLIC "-//W3C//DTD SVG 20010904//EN"
 "http://www.w3.org/TR/2001/REC-SVG-20010904/DTD/svg10.dtd">
<svg version="1.0" xmlns="http://www.w3.org/2000/svg"
 width="650.000000pt" height="650.000000pt" viewBox="0 0 650.000000 650.000000"
 preserveAspectRatio="xMidYMid meet">
<metadata>
Created by potrace 1.16, written by Peter Selinger 2001-2019
</metadata>
<g transform="translate(0.000000,650.000000) scale(0.100000,-0.100000)"
fill="#D31013" stroke="none">
<path d="M2293 4599 c-78 -4 -157 -9 -175 -12 -18 -4 -55 -9 -83 -12 -289 -32
-521 -111 -765 -261 -317 -194 -562 -496 -656 -806 -55 -183 -55 -451 1 -619
13 -41 25 -79 25 -86 0 -7 11 -37 25 -67 14 -30 25 -57 25 -60 0 -3 23 -44 50
-91 151 -254 374 -439 700 -578 282 -120 599 -149 865 -79 279 74 495 187 790
413 172 132 306 257 745 693 234 232 457 449 495 483 242 210 309 263 440 350
238 159 393 208 750 239 l80 7 -65 15 c-44 9 -127 15 -255 15 -176 1 -198 -1
-294 -26 -130 -34 -227 -73 -358 -142 -257 -136 -383 -244 -963 -825 -417
-417 -511 -505 -710 -665 -313 -251 -566 -364 -908 -407 -228 -28 -514 18
-732 119 -125 58 -301 183 -380 269 -143 156 -244 369 -280 588 -25 153 -8
334 46 496 80 240 284 510 514 680 97 72 313 179 445 222 402 129 783 157
1280 93 38 -5 37 -4 -10 10 -133 39 -378 55 -642 44z"/>
<path d="M4570 4550 c-328 -32 -815 -360 -1250 -841 -47 -51 -107 -119 -135
-149 -355 -393 -601 -583 -920 -714 -146 -60 -447 -94 -670 -77 -240 18 -251
15 -64 -23 277 -56 528 -61 734 -15 101 23 262 82 351 129 273 143 483 327
888 775 137 151 380 392 486 480 138 114 283 213 399 271 191 95 302 123 536
131 183 7 181 13 -9 32 -119 12 -230 12 -346 1z"/>
<path d="M5283 3745 c-81 -15 -202 -54 -259 -83 -56 -28 -160 -107 -228 -171
-66 -63 -215 -231 -297 -336 -30 -38 -98 -124 -149 -190 -214 -273 -297 -356
-440 -443 -66 -39 -192 -92 -265 -111 -112 -28 -112 -30 0 -25 154 7 346 41
414 73 116 55 226 115 241 132 3 3 15 12 28 21 50 34 182 170 267 274 28 34
66 81 85 104 19 24 50 65 69 92 19 26 38 48 42 48 5 0 9 5 9 11 0 13 121 162
195 239 125 132 257 234 360 277 65 28 175 53 230 53 43 0 252 -24 308 -36 15
-3 27 -1 27 4 0 11 -143 57 -224 71 -80 15 -324 12 -413 -4z"/>
</g>
</svg>
